<svg xmlns="http://www.w3.org/2000/svg" xmlns:xlink="http://www.w3.org/1999/xlink" version="1.1" x="0px" y="0px" viewBox="0 0 100 100" enable-background="new 0 0 100 100" xml:space="preserve"><line fill="none" stroke="#000000" stroke-miterlimit="10" x1="49.871" y1="50.24" x2="79.491" y2="85.476"></line><line fill="none" stroke="#000000" stroke-miterlimit="10" x1="20.225" y1="14.765" x2="49.845" y2="50"></line><line fill="none" stroke="#000000" stroke-miterlimit="10" x1="49.838" y1="50.267" x2="89.719" y2="73.254"></line><line fill="none" stroke="#000000" stroke-miterlimit="10" x1="9.964" y1="27.252" x2="49.845" y2="50.24"></line><line fill="none" stroke="#000000" stroke-miterlimit="10" x1="49.821" y1="50.346" x2="95.14" y2="58.422"></line><line fill="none" stroke="#000000" stroke-miterlimit="10" x1="4.682" y1="42.331" x2="50" y2="50.407"></line><line fill="none" stroke="#000000" stroke-miterlimit="10" x1="49.845" y1="2.806" x2="49.845" y2="49.168"></line><line fill="none" stroke="#000000" stroke-miterlimit="10" x1="49.821" y1="50.266" x2="49.821" y2="96.689"></line><line fill="none" stroke="#000000" stroke-miterlimit="10" x1="34.136" y1="7.186" x2="49.651" y2="49.903"></line><line fill="none" stroke="#000000" stroke-miterlimit="10" x1="49.821" y1="50.24" x2="65.479" y2="93.352"></line><line fill="none" stroke="#000000" stroke-miterlimit="10" x1="49.821" y1="50.21" x2="89.735" y2="27.282"></line><line fill="none" stroke="#000000" stroke-miterlimit="10" x1="49.845" y1="50.24" x2="79.518" y2="15.048"></line><line fill="none" stroke="#000000" stroke-miterlimit="10" x1="49.851" y1="50.24" x2="65.807" y2="7.061"></line><line fill="none" stroke="#000000" stroke-miterlimit="10" x1="49.821" y1="50.267" x2="95.021" y2="42.471"></line><line fill="none" stroke="#000000" stroke-miterlimit="10" x1="49.821" y1="50.407" x2="9.987" y2="73.476"></line><line fill="none" stroke="#000000" stroke-miterlimit="10" x1="49.651" y1="50.407" x2="20.103" y2="85.702"></line><line fill="none" stroke="#000000" stroke-miterlimit="10" x1="49.796" y1="50.407" x2="33.991" y2="93.641"></line><line fill="none" stroke="#000000" stroke-miterlimit="10" x1="49.927" y1="50.407" x2="4.755" y2="58.36"></line><circle fill="none" stroke="#000000" stroke-width="4" stroke-miterlimit="10" cx="49.845" cy="50.239" r="47.433"></circle><ellipse cx="49.845" cy="50.239" rx="5.277" ry="5.621"></ellipse></svg>